# xmcd
#
# Track frame offsets:
# 150
# 20005
# 39825
# 57487
# 75445
# 95100
# 111860
# 128592
# 147387
# 161822
# 175705
# 200467
# 219977
# 235190
# 250875
# 267772
# 284475
# 301867
# 321547
#
# Disc length: 4475 seconds
#
# Revision: 0
# Processed by: cddbd v1.5.1PL0 Copyright (c) Steve Scherf et al.
# Submitted via: Audion 3.0.2 (http://www.panic.com/audion/)
#
DISCID=10117913
DTITLE=collction - hot sampler
DYEAR=1900
DGENRE=
TTITLE0=toni braxton_he wasnt's enough
TTITLE1=santana_maria maria
TTITLE2=christina aguiler_what a girl wants
TTITLE3=tlc_dear lie
TTITLE4=whiteny houston_l learned from the best
TTITLE5=sarah mclachlan_i will remeber
TTITLE6=gil_out of my bed
TTITLE7=westife_seasons in the sun
TTITLE8=modern talking_china in her eyes
TTITLE9=patti smith_glitter in theer eyes
TTITLE10=steely dan_cousin dupree
TTITLE11=vertical horizon-everything you want
TTITLE12=marie frank_symptom of my time
TTITLE13=pink_there you go
TTITLE14=angie aparo_ther you go
TTITLE15=eiffel 65_blue
TTITLE16=giorgio moroder_the chase
TTITLE17=richard stoltzman_cause i love you
TTITLE18=the wannadies_yeah
EXTD=
EXTT0=
EXTT1=
EXTT2=
EXTT3=
EXTT4=
EXTT5=
EXTT6=
EXTT7=
EXTT8=
EXTT9=
EXTT10=
EXTT11=
EXTT12=
EXTT13=
EXTT14=
EXTT15=
EXTT16=
EXTT17=
EXTT18=
PLAYORDER=
